<svg class="fill-current text-primary group-hover:text-white duration-300 w-6 md:w-[33px] h-8 md:h-12" viewBox="0 0 33 48" fill="none" xmlns="http://www.w3.org/2000/svg">
                                <path d="M32.0552 29.3491V27.2706C32.0552 25.6445 30.9884 24.2636 29.5181 23.7894L28.0261 4.22924C27.868 2.15495 26.3009 0.59082 24.3812 0.59082H8.35376C6.43401 0.59082 4.86704 2.15495 4.70876 4.22924L3.21686 23.7893C1.74655 24.2636 0.679688 25.6445 0.679688 27.2705V29.349C0.679688 30.4072 1.54062 31.268 2.59871 31.268H3.16319V34.4849V46.4952C3.16319 47.0001 3.57258 47.4096 4.07762 47.4096H7.27382C7.73305 47.4096 8.12104 47.069 8.18057 46.6136L9.64558 35.3994H23.0911L24.556 46.6136C24.6154 47.069 25.0035 47.4096 25.4627 47.4096H28.6589C29.1639 47.4096 29.5734 47.0001 29.5734 46.4952V34.485C29.5734 34.4849 29.5734 34.4849 29.5734 34.4848C29.5734 34.4847 29.5734 34.4847 29.5734 34.4846L29.5721 31.2681H30.1362C31.1944 31.2681 32.0552 30.4073 32.0552 29.3491ZM2.50855 29.3491V27.2706C2.50855 26.2623 3.32888 25.442 4.33713 25.442H12.311C12.816 25.442 13.2254 25.0325 13.2254 24.5276C13.2254 24.0226 12.816 23.6131 12.311 23.6131H5.06447L6.53231 4.36842C6.61571 3.27559 7.41574 2.41968 8.35376 2.41968H24.3811C25.3191 2.41968 26.1191 3.27559 26.2025 4.36842L27.6704 23.6131H20.3576C19.8526 23.6131 19.4431 24.0226 19.4431 24.5276C19.4431 25.0325 19.8526 25.442 20.3576 25.442H28.3977C29.4059 25.442 30.2263 26.2623 30.2263 27.2706V29.3491C30.2263 29.3988 30.1859 29.4392 30.1361 29.4392H2.5988C2.54906 29.4392 2.50855 29.3988 2.50855 29.3491ZM6.47104 45.5808H4.99205V35.3994H7.80108L6.47104 45.5808ZM27.7444 45.5808H26.2653L24.9354 35.3994H27.7444V45.5808ZM27.7441 33.5705H4.99214V31.2681H27.7432L27.7441 33.5705Z"></path>
                            </svg>