<svg class="fill-current text-primary group-hover:text-white duration-300 w-7 md:w-12 h-7 md:h-12" viewBox="0 0 48 48" fill="none" xmlns="http://www.w3.org/2000/svg">
                                <path d="M45.049 27.9119H42.7019V20.0889C42.6994 17.9294 40.9496 16.1797 38.7902 16.1772H26.2734C24.114 16.1797 22.3643 17.9294 22.3618 20.0889V27.9119H20.0147C18.7194 27.9133 17.6694 28.9633 17.668 30.2589V38.0819C17.6741 40.1407 19.277 41.841 21.3318 41.9685L20.207 45.9049H12.895C12.5208 44.0853 10.9204 42.7782 9.0625 42.7757H7.4979V6.75809C7.49897 4.3111 9.39053 2.28096 11.8314 2.10763C14.2723 1.9343 16.4321 3.67653 16.7791 6.09881L16.7927 6.19371C15.7832 6.60948 15.197 7.66949 15.3818 8.74526L15.5952 10.0083L13.5035 13.6006C13.2223 14.0837 13.2202 14.6799 13.4974 15.1652C13.7749 15.6504 14.2902 15.9509 14.8493 15.9534C14.9388 15.9534 15.0283 15.9459 15.1164 15.9308L22.6217 14.6624C23.2202 14.561 23.7061 14.1227 23.8687 13.5379C24.0309 12.9531 23.8404 12.3271 23.3795 11.9321L20.2235 9.22657L20.01 7.9635C19.8585 7.0829 19.219 6.36524 18.3616 6.11349L18.328 5.87749C17.8656 2.64158 14.9807 0.313483 11.7204 0.545183C8.46015 0.776882 5.9333 3.48959 5.9333 6.75809V42.7757H4.3687V41.9936C4.3687 41.5613 4.01847 41.2111 3.58623 41.2111C3.15434 41.2111 2.80411 41.5613 2.80411 41.9936V43.1073C1.38061 43.7294 0.459896 45.1339 0.457031 46.6874C0.457031 47.1193 0.807266 47.4695 1.23951 47.4695H46.6136C47.0454 47.4695 47.3957 47.1193 47.3957 46.6874C47.3957 46.2551 47.0454 45.9049 46.6136 45.9049H44.8567L43.7318 41.9685C45.7867 41.841 47.3896 40.1407 47.3957 38.0819V30.2589C47.3942 28.9633 46.3443 27.9133 45.049 27.9119ZM22.361 13.1196L14.8557 14.3884L16.9055 10.8682L19.2687 10.4689L22.3668 13.1182L22.361 13.1196ZM18.598 8.99523L17.0552 9.25593L16.9245 8.48456C16.8533 8.05876 17.1397 7.65552 17.5655 7.58283C17.6089 7.57567 17.6526 7.57208 17.6966 7.57208C18.078 7.5728 18.4035 7.84783 18.468 8.22385L18.598 8.99523ZM26.2734 17.7418H38.7902C40.0859 17.7432 41.1359 18.7932 41.1373 20.0889V28.0562C40.2023 28.3853 39.5756 29.2673 39.5727 30.2589V31.8436C38.8994 31.3261 38.0747 31.0439 37.2256 31.041H34.4205L36.2143 29.2473C36.5105 28.9404 36.5065 28.4522 36.2046 28.1507C35.9027 27.8488 35.415 27.8445 35.1081 28.141L33.3143 29.9348V26.3473C33.3143 25.915 32.9637 25.5648 32.5318 25.5648C32.0999 25.5648 31.7493 25.915 31.7493 26.3473V29.9348L29.9556 28.141C29.6486 27.8445 29.1609 27.8488 28.859 28.1507C28.5571 28.4522 28.5532 28.9404 28.8493 29.2473L30.6431 31.041H27.838C26.9889 31.0439 26.1642 31.3261 25.491 31.8436V30.2589C25.4881 29.2673 24.8614 28.3853 23.9264 28.0562V20.0889C23.9278 18.7932 24.9778 17.7432 26.2734 17.7418ZM37.2256 32.6056C38.5213 32.6071 39.5713 33.6571 39.5727 34.9527V35.7348H25.491V34.9527C25.4924 33.6571 26.5424 32.6071 27.838 32.6056H37.2256ZM38.3365 41.9936L40.5718 45.9049H24.4922L26.7272 41.9936H38.3365ZM39.5727 40.4286H25.491V37.2994H39.5727V40.4286ZM19.2326 38.0819V30.2589C19.2329 29.827 19.5832 29.4772 20.0147 29.4764H23.1442C23.5758 29.4772 23.926 29.827 23.9264 30.2589V40.4286H21.5796C20.284 40.4272 19.234 39.3776 19.2326 38.0819ZM2.15592 45.9049C2.48825 44.9681 3.37422 44.3414 4.3687 44.3403H9.0625C10.0566 44.3414 10.943 44.9681 11.2753 45.9049H2.15592ZM21.8343 45.9049L22.9519 41.9936H24.9255L22.6905 45.9049H21.8343ZM42.3731 45.9049L40.1381 41.9936H42.1117L43.2294 45.9049H42.3731ZM45.8311 38.0819C45.8296 39.3776 44.7797 40.4272 43.484 40.4286H41.1373V30.2589C41.1376 29.827 41.4879 29.4772 41.9194 29.4764H45.049C45.4805 29.4772 45.8304 29.827 45.8311 30.2589V38.0819Z"></path>
                            </svg>