<svg class="fill-current text-primary group-hover:text-white duration-300 w-7 md:w-10 h-7 md:h-10" viewBox="0 0 43 42" fill="none" xmlns="http://www.w3.org/2000/svg">
                                <path d="M37.7642 12.9139V7.81903C37.7621 5.93736 37.0136 4.13337 35.6831 2.80282C34.3525 1.47227 32.5485 0.723826 30.6669 0.72168H12.4165C10.5349 0.723826 8.73086 1.47227 7.40031 2.80282C6.06976 4.13337 5.32132 5.93736 5.31917 7.81903V12.9139C4.21956 13.0152 3.17475 13.4406 2.31718 14.1363C1.45962 14.832 0.827907 15.7666 0.502119 16.8217C0.176332 17.8768 0.171138 19.0049 0.487194 20.063C0.80325 21.1211 1.42633 22.0615 2.27745 22.765V32.1528C2.27875 33.1381 2.56713 34.1017 3.10733 34.9256C3.64754 35.7496 4.41615 36.3983 5.31917 36.7925V39.2502C5.31917 39.788 5.53282 40.3038 5.91311 40.6841C6.2934 41.0643 6.80918 41.278 7.34699 41.278H9.3748C9.91261 41.278 10.4284 41.0643 10.8087 40.6841C11.189 40.3038 11.4026 39.788 11.4026 39.2502V37.2224H31.6808V39.2502C31.6808 39.788 31.8944 40.3038 32.2747 40.6841C32.655 41.0643 33.1708 41.278 33.7086 41.278H35.7364C36.2742 41.278 36.79 41.0643 37.1703 40.6841C37.5506 40.3038 37.7642 39.788 37.7642 39.2502V36.7925C38.6672 36.3983 39.4359 35.7496 39.9761 34.9256C40.5163 34.1017 40.8046 33.1381 40.8059 32.1528V22.765C41.6571 22.0615 42.2801 21.1211 42.5962 20.063C42.9123 19.0049 42.9071 17.8768 42.5813 16.8217C42.2555 15.7666 41.6238 14.832 40.7662 14.1363C39.9086 13.4406 38.8638 13.0152 37.7642 12.9139ZM12.4165 2.7495H30.6669C32.0109 2.75111 33.2994 3.28573 34.2498 4.23611C35.2002 5.18648 35.7348 6.475 35.7364 7.81903V13.1045C34.5699 13.4363 33.5431 14.1388 32.8114 15.106C32.0796 16.0731 31.6828 17.2523 31.6808 18.4651V24.8618C28.3273 24.3274 24.9375 24.0531 21.5417 24.0416C18.1459 24.0531 14.7561 24.3274 11.4026 24.8618V18.4651C11.4006 17.2523 11.0038 16.0731 10.272 15.106C9.5403 14.1388 8.51352 13.4363 7.34699 13.1045V7.81903C7.3486 6.475 7.88323 5.18648 8.8336 4.23611C9.78397 3.28573 11.0725 2.75111 12.4165 2.7495ZM9.3748 39.2502H7.34699V37.2224H9.3748V39.2502ZM35.7364 39.2502H33.7086V37.2224H35.7364V39.2502ZM39.2273 21.4155C39.0891 21.5082 38.9759 21.6334 38.8976 21.7802C38.8192 21.9269 38.7782 22.0907 38.7781 22.2571V32.1528C38.7781 32.9595 38.4577 33.7332 37.8872 34.3036C37.3168 34.8741 36.5431 35.1945 35.7364 35.1945H7.34699C6.54027 35.1945 5.7666 34.8741 5.19617 34.3036C4.62573 33.7332 4.30526 32.9595 4.30526 32.1528V22.2571C4.30518 22.0907 4.26416 21.9269 4.18583 21.7802C4.1075 21.6334 3.99426 21.5082 3.8561 21.4155C3.34607 21.0751 2.93294 20.6083 2.65701 20.0607C2.38109 19.5131 2.25177 18.9033 2.28167 18.2909C2.31157 17.6784 2.49968 17.0841 2.82764 16.566C3.1556 16.0478 3.61223 15.6235 4.153 15.3344C4.69377 15.0453 5.30023 14.9012 5.91326 14.9163C6.52628 14.9314 7.12494 15.105 7.65087 15.4203C8.17679 15.7356 8.61204 16.1818 8.91417 16.7155C9.2163 17.2491 9.375 17.8519 9.3748 18.4651V26.0694C9.37485 26.2193 9.40816 26.3674 9.47233 26.5029C9.5365 26.6385 9.62993 26.7581 9.74589 26.8531C9.86158 26.9487 9.99723 27.0172 10.1429 27.0535C10.2885 27.0899 10.4404 27.0931 10.5874 27.063C14.2031 26.4145 17.8684 26.082 21.5417 26.0694C25.2137 26.0822 28.8776 26.4147 32.4919 27.063C32.6392 27.0931 32.7914 27.09 32.9374 27.054C33.0834 27.018 33.2196 26.95 33.336 26.8549C33.4525 26.7598 33.5463 26.6399 33.6108 26.5041C33.6752 26.3682 33.7086 26.2197 33.7086 26.0694V18.4651C33.7084 17.8519 33.8671 17.2491 34.1692 16.7155C34.4714 16.1818 34.9066 15.7356 35.4325 15.4203C35.9585 15.105 36.5571 14.9314 37.1701 14.9163C37.7832 14.9012 38.3896 15.0453 38.9304 15.3344C39.4712 15.6235 39.9278 16.0478 40.2558 16.566C40.5837 17.0841 40.7718 17.6784 40.8017 18.2909C40.8316 18.9033 40.7023 19.5131 40.4264 20.0607C40.1504 20.6083 39.7373 21.0751 39.2273 21.4155Z"></path>
                            </svg>