<svg class="fill-current text-primary group-hover:text-white duration-300 w-6 md:w-[33px] h-7 md:h-11" viewBox="0 0 33 44" fill="none" xmlns="http://www.w3.org/2000/svg">
                                <path d="M20.4739 5.95801H13.1823C12.7796 5.95801 12.4531 6.28447 12.4531 6.68717C12.4531 7.08988 12.7796 7.41634 13.1823 7.41634H20.4739C20.8767 7.41634 21.2031 7.08988 21.2031 6.68717C21.2031 6.28447 20.8767 5.95801 20.4739 5.95801Z"></path>
                                <path d="M8.84502 38.6651L6.36585 39.9046C5.6249 40.2739 5.15769 41.0317 5.16054 41.8595V42.4166C5.16054 43.222 5.81346 43.8749 6.61887 43.8749H27.0355C27.8409 43.8749 28.4938 43.222 28.4938 42.4166V41.8595C28.4966 41.0303 28.0277 40.2717 27.2849 39.9032L24.8094 38.6636C29.2091 35.2394 32.8688 27.5096 32.8688 21.2708C32.9604 18.0175 31.5971 14.8927 29.1501 12.7469C29.1406 12.7367 29.1304 12.7294 29.1209 12.7199C27.5837 11.3887 25.9182 10.2133 24.1487 9.21115C24.2274 8.44759 24.4394 7.70374 24.7751 7.01345C25.2259 6.05943 25.8491 5.19694 26.6133 4.46939C27.7518 4.31264 28.5736 3.2999 28.4926 2.15357C28.4116 1.00723 27.4555 0.120122 26.3063 0.12502H7.34804C6.19959 0.122093 5.24538 1.00973 5.16538 2.1554C5.08539 3.30106 5.90699 4.31269 7.04471 4.46939C7.80902 5.19686 8.43223 6.05937 8.88293 7.01345C9.21803 7.70383 9.42929 8.44769 9.5071 9.21115C7.73758 10.2132 6.07201 11.3885 4.53492 12.7199C4.52544 12.7294 4.51523 12.7367 4.50575 12.7469C2.05816 14.8924 0.694339 18.0173 0.78555 21.2708C0.78555 27.5096 4.44523 35.2394 8.84502 38.6651ZM27.0355 41.8595L27.0355 42.4166H6.61887L6.61887 41.8595C6.61799 41.5831 6.77439 41.3303 7.0221 41.2077L10.4368 39.5H23.2176L26.6323 41.2077C26.88 41.3303 27.0364 41.5831 27.0355 41.8595ZM23.1819 38.0416H10.4725C8.27189 36.6402 6.18502 33.9021 4.66179 30.75H17.5564C17.9591 30.75 18.2855 30.4235 18.2855 30.0208C18.2855 29.6181 17.9591 29.2916 17.5564 29.2916H4.01429C3.37191 27.7472 2.88864 26.1413 2.57201 24.4988C2.9267 24.7549 3.2455 25.0572 3.51992 25.3979C4.22173 26.4283 5.37291 27.0621 6.61887 27.1041C7.86648 27.0626 9.01914 26.4274 9.72074 25.395C10.3945 24.625 10.8196 24.1875 11.7157 24.1875C12.6119 24.1875 13.0436 24.625 13.7188 25.3972C14.4207 26.4286 15.573 27.0628 16.8199 27.1041C18.0668 27.0628 19.2191 26.4286 19.921 25.3972C20.597 24.625 21.0228 24.1875 21.9241 24.1875C22.8253 24.1875 23.2519 24.625 23.9271 25.3972C24.6013 26.4604 25.7728 27.1047 27.0319 27.1047C28.2909 27.1047 29.4624 26.4604 30.1366 25.3972C30.411 25.0569 30.7299 24.755 31.0846 24.4996C30.7672 26.1419 30.2832 27.7475 29.6401 29.2916H20.473C20.0703 29.2916 19.7439 29.6181 19.7439 30.0208C19.7439 30.4235 20.0703 30.75 20.473 30.75H28.9926C27.473 33.9021 25.3825 36.6402 23.1819 38.0416ZM2.24388 21.2708C2.23365 20.1744 2.39127 19.0828 2.71128 18.0341C3.00638 18.2741 3.277 18.5428 3.51919 18.8361C4.22066 19.8671 5.37253 20.5009 6.61887 20.5417C7.86648 20.5001 9.01914 19.865 9.72074 18.8325C10.3945 18.0625 10.8196 17.625 11.7157 17.625C12.6119 17.625 13.0436 18.0625 13.7188 18.8347C14.4207 19.8661 15.573 20.5004 16.8199 20.5417C18.0668 20.5004 19.2191 19.8661 19.921 18.8347C20.597 18.0625 21.0228 17.625 21.9241 17.625C22.8253 17.625 23.2519 18.0625 23.9271 18.8347C24.6014 19.8976 25.7727 20.5416 27.0315 20.5416C28.2903 20.5416 29.4616 19.8976 30.1359 18.8347C30.3776 18.5411 30.648 18.2724 30.9431 18.0326C31.2633 19.0818 31.4209 20.1739 31.4105 21.2708C31.4105 21.7812 31.374 22.3004 31.3223 22.829C30.406 23.0986 29.6039 23.6624 29.04 24.4332C28.4472 25.1113 27.9783 25.6458 27.0282 25.6458C26.127 25.6458 25.7011 25.2083 25.0252 24.4361C24.3522 23.3734 23.1819 22.7293 21.9241 22.7293C20.6662 22.7293 19.4959 23.3734 18.8229 24.4361C18.1477 25.2083 17.7219 25.6458 16.8199 25.6458C15.9179 25.6458 15.4928 25.2083 14.8169 24.4361C14.1149 23.4047 12.9627 22.7704 11.7157 22.7291C10.4712 22.7707 9.32159 23.4049 8.62262 24.4354C7.94668 25.2083 7.52012 25.6458 6.61887 25.6458C5.71763 25.6458 5.29106 25.2083 4.61513 24.4369C4.0511 23.6658 3.24873 23.102 2.33211 22.8327C2.28034 22.3004 2.24388 21.7812 2.24388 21.2708ZM5.29763 13.9792H13.1814C13.5841 13.9792 13.9105 13.6527 13.9105 13.25C13.9105 12.8473 13.5841 12.5208 13.1814 12.5208H7.07169C8.11585 11.7647 9.2672 11.0589 10.4681 10.3333H23.1862C24.3872 11.0589 25.5385 11.7647 26.5827 12.5208H16.098C15.6953 12.5208 15.3689 12.8473 15.3689 13.25C15.3689 13.6527 15.6953 13.9792 16.098 13.9792H28.3568C29.1809 14.7472 29.8684 15.6499 30.3897 16.6486C29.8793 16.9843 29.4244 17.3976 29.0414 17.8736C28.3619 18.6458 27.9353 19.0833 27.0282 19.0833C26.1211 19.0833 25.7011 18.6458 25.0252 17.8736C24.3522 16.8109 23.1819 16.1668 21.9241 16.1668C20.6662 16.1668 19.4959 16.8109 18.8229 17.8736C18.1477 18.6458 17.7219 19.0833 16.8199 19.0833C15.9179 19.0833 15.4928 18.6458 14.8169 17.8736C14.1149 16.8422 12.9627 16.208 11.7157 16.1667C10.4712 16.2082 9.32159 16.8424 8.62262 17.8729C7.94668 18.6458 7.52012 19.0833 6.61887 19.0833C5.71763 19.0833 5.29179 18.6458 4.61659 17.8758C4.23384 17.3988 3.77866 16.9847 3.26763 16.6486C3.78803 15.6501 4.47448 14.7474 5.29763 13.9792ZM23.4626 6.36157C23.0779 7.15285 22.8259 8.00198 22.7167 8.87501H10.9377C10.8285 8.00198 10.5765 7.15285 10.1918 6.36157C9.86504 5.70532 9.47607 5.08194 9.03022 4.50001H24.6242C24.1783 5.08194 23.7893 5.70532 23.4626 6.36157ZM7.34804 1.58335H26.3063C26.709 1.58335 27.0355 1.90981 27.0355 2.31252C27.0355 2.71522 26.709 3.04168 26.3063 3.04168H7.34804C6.94533 3.04168 6.61887 2.71522 6.61887 2.31252C6.61887 1.90981 6.94533 1.58335 7.34804 1.58335Z"></path>
                            </svg>